<?xml version="1.0" encoding="UTF-8" standalone="no"?>
<!-- Created with Inkscape (http://www.inkscape.org/) -->
<svg xmlns="http://www.w3.org/2000/svg" version="1.0" width="773.50391" height="591.73224" id="svg2">
  <defs id="defs4"/>
  <g style="opacity:1" id="layer1">
    <text x="518.57141" y="152.36218" style="font-size:12px;font-style:normal;font-weight:normal;fill:black;fill-opacity:1;stroke:none;stroke-width:1px;stroke-linecap:butt;stroke-linejoin:miter;stroke-opacity:1;font-family:Bitstream Vera Sans" id="text24345" xml:space="preserve"><tspan x="518.57141" y="152.36218" id="tspan24347"/></text>
    <g transform="matrix(1.008002,0,0,0.976176,3.970003,1.640974)" id="g53655">
      <path d="M 222.23356,6.8542982 C 219.19268,2.2151818 214.38195,-0.44638213 208.09142,5.8441456 C 203.8324,10.103167 199.85418,6.1562028 196.97975,11.905061 C 194.74373,16.377085 199.29046,22.158066 200.0102,25.037044 C 201.04321,29.169053 192.14755,20.996434 187.88837,20.996434 C 183.86184,20.996434 180.9486,19.986281 175.76654,19.986281 C 168.97991,19.986281 166.91415,19.508316 164.65486,24.026891 C 161.96569,29.405247 157.03991,25.037044 152.53303,25.037044 C 149.12323,25.037044 143.262,24.026891 138.3909,24.026891 C 133.34014,24.026891 128.28937,24.026891 123.23861,24.026891 C 116.83344,24.026891 114.86587,28.650538 113.13709,32.108112 C 110.84685,36.688576 107.19075,38.054447 104.04571,41.199485 C 100.61892,44.626276 93.472787,43.21979 88.893424,43.21979 C 82.64601,43.21979 79.283488,43.711379 75.761441,40.189332 C 72.641389,37.06928 66.75626,38.169027 61.619305,38.169027 C 54.769024,38.169027 53.624179,36.191769 49.497475,34.128417 C 44.729891,31.744625 41.585053,33.118264 35.355339,33.118264 C 28.139146,33.118264 28.256467,32.135916 24.243661,36.148722 C 20.879366,39.513017 15.892213,39.246736 12.121831,40.189332 C 9.3964125,40.870687 4.8498258,46.451184 3.0304576,48.270553 C -1.251042,52.552052 1.0321143,57.361925 6.0609153,57.361925 C 10.619066,57.361925 13.254871,60.453827 17.172593,62.412688 C 23.197371,65.425077 20.357444,66.298905 16.162441,70.493909 C 12.821917,73.834432 10.781359,74.864838 7.0710678,78.575129 C 2.1934226,83.452774 11.163913,84.636044 15.152288,84.636044 C 19.624542,84.636044 18.332572,81.305935 15.152288,87.666502 C 13.249656,91.471766 14.142136,97.288725 14.142136,101.80864 C 14.142136,106.71132 23.89918,103.6567 28.284271,105.84925 C 32.906852,108.16054 32.324881,113.99043 32.324881,118.98123 C 32.324881,122.44356 36.185765,122.05662 28.284271,124.03199 C 23.780416,125.15796 20.729181,124.03199 15.152288,124.03199 C 10.954536,124.03199 9.1326516,129.07244 5.0507627,130.09291 C -2.8874453,132.07746 2.5036276,136.02212 7.0710678,137.16398 C 7.6045289,137.29734 7.0710678,151.70021 7.0710678,153.32642 C 7.0710678,155.51947 12.121831,156.91213 12.121831,163.42794 C 12.121831,169.39705 8.1003914,170.5086 14.142136,173.52947 C 17.927521,175.42216 17.2534,180.64094 21.213203,182.62084 C 24.532162,184.28032 24.875283,190.19588 24.243661,192.72237 C 23.287785,196.54587 27.328395,200.01054 28.284271,203.83404 C 29.317273,207.96605 36.596578,201.6982 40.406102,199.79343 C 43.133306,198.42983 37.239905,192.85811 39.395949,190.70206 C 41.934739,188.16327 47.352854,185.20838 50.507627,183.63099 C 55.555012,181.1073 54.556976,176.52497 55.55839,172.51932 C 56.4357,169.01008 59.129109,164.36773 60.609153,161.40764 C 62.463572,157.6988 63.493221,149.87137 63.63961,149.28581 C 64.729171,144.92757 72.753494,150.30721 76.771593,152.31626 C 80.431938,154.14644 82.797815,157.85476 85.862966,159.38733 C 88.309738,160.61072 93.493963,167.8885 96.974644,170.49901 C 101.75499,174.08427 105.05586,173.33778 105.05586,180.60054 C 105.05586,185.61251 108.43891,188.35298 111.11678,189.69191 C 111.80954,190.03829 105.87557,202.19463 105.05586,203.83404 C 102.59957,208.74663 107.20791,214.46255 108.08632,217.97618 C 109.04873,221.82579 111.86748,226.04818 114.14724,229.08786 C 114.98023,230.19852 111.89533,232.50759 113.13709,233.12847 C 120.03087,236.57536 122.2212,240.69917 128.28937,245.2503 C 133.62452,249.25166 135.57869,245.6868 139.40105,253.33152 C 140.45774,255.4449 149.23191,257.74187 150.51273,258.38228 C 156.29637,261.2741 147.12729,257.69971 144.45181,256.36198 C 140.69084,254.48149 134.91843,256.47248 131.31983,257.37213 C 128.65818,258.03754 123.70115,259.94004 121.21831,262.42289 C 119.33183,264.30937 126.64406,270.87911 127.27922,271.51427 C 131.27508,275.51012 133.6765,272.85971 135.36044,279.59549 C 136.27689,283.26128 141.6999,285.93494 143.44166,287.67671 C 146.66886,290.9039 147.7538,295.10981 150.51273,298.78838 C 152.55956,301.51749 159.42847,305.22265 161.62441,306.8696 C 165.07055,309.45421 170.79101,311.68664 171.72593,311.92037 C 176.21658,313.04303 182.33419,314.06736 185.86807,314.95082 C 190.54518,316.1201 185.73025,325.23611 182.83761,329.09296 C 178.9943,334.21738 187.81811,337.17418 190.91883,337.17418 C 197.13453,337.17418 201.25085,339.58432 206.07112,337.17418 C 210.78134,334.81907 216.53896,333.96056 220.21325,332.12342 C 220.40929,332.0254 228.07097,338.38099 231.32493,339.19449 C 234.91846,340.09287 237.7825,339.04111 242.43661,340.20464 C 246.79793,341.29497 249.59781,345.30046 253.54829,347.27571 C 259.13542,350.06927 260.56754,352.27465 263.64981,355.35693 C 267.67278,359.37989 270.01956,363.74698 272.74119,366.4686 C 275.72527,369.45269 281.1636,371.18489 281.83256,371.51937 C 283.54646,372.37631 286.11238,370.98764 288.90363,376.57013 C 291.38476,381.5324 292.0601,381.96794 296.98485,385.6615 C 300.46489,388.27154 303.94045,389.67325 308.09653,390.71227 C 314.70679,392.36483 312.47217,394.08282 311.12698,396.77318 C 309.70407,399.61901 320.45324,400.24999 322.23866,399.80364 C 326.17222,398.82025 326.69332,407.08173 330.31988,408.89501 C 336.8746,412.17237 334.38073,414.95593 342.44171,414.95593 C 348.65324,414.95593 350.54846,422.1291 351.53309,426.0676 C 352.77981,431.0545 361.80068,432.71663 364.66507,434.14882 C 368.80566,436.21912 371.22278,439.18303 372.74629,442.23005 C 376.04527,448.828 380.82751,434.41526 380.82751,444.25035 C 380.82751,452.00417 387.92275,450.28709 389.91888,448.29096 C 392.73015,445.47969 399.8572,450.69393 402.04071,452.33157 C 406.43947,455.63064 405.14709,460.41279 413.15239,460.41279 C 415.98744,460.41279 420.84486,470.12556 422.24376,471.52447 C 426.17525,475.45595 426.08368,478.80293 427.29453,483.6463 C 427.80764,485.69876 437.39605,482.83867 437.39605,491.72752 C 437.39605,496.38465 440.65286,498.79859 445.47727,498.79859 C 450.69256,498.79859 452.02349,502.09147 456.58895,499.80874 C 457.5618,499.32231 456.58895,486.29086 456.58895,484.65645 C 456.58895,481.84184 451.83507,476.29764 450.52804,474.55493 C 446.85037,469.65137 448.23085,466.47371 454.56865,466.47371 C 459.1485,466.47371 456.56108,457.43807 458.60926,453.34172 C 460.51478,449.53067 463.90542,445.0151 466.69048,442.23005 C 469.37538,439.54514 472.02924,434.00696 472.75139,431.11837 C 473.56645,427.85813 480.72915,423.56809 482.85292,423.03715 C 486.3712,422.15758 484.32916,430.57431 486.89353,433.13867 C 491.1805,437.42565 489.79913,440.65239 494.97475,443.2402 C 501.27427,446.38996 505.52468,443.01353 504.06612,437.17928 C 503.26973,433.99373 517.09629,438.08762 518.20826,439.19959 C 521.20553,442.19687 522.13938,446.05169 524.26917,450.31127 C 526.66566,455.10424 528.89531,456.37218 535.38085,456.37218 C 542.04806,456.37218 542.27621,458.30463 546.49253,460.41279 C 549.32455,461.8288 550.79314,471.55434 551.54329,474.55493 C 552.40395,477.99756 556.3939,478.80508 557.60421,483.6463 C 558.69341,488.00312 557.31192,494.91698 556.59405,497.78844 C 555.44441,502.387 551.54329,502.53164 551.54329,509.91027 C 551.54329,511.87365 548.39729,512.46453 546.49253,512.94072" style="opacity:1;fill:none;fill-opacity:1;fill-rule:evenodd;stroke:black;stroke-width:3.9000001;stroke-linecap:butt;stroke-linejoin:miter;stroke-miterlimit:4;stroke-dasharray:none;stroke-opacity:1" id="path2081"/>
      <path d="M 707.85714,275.21932 C 708.46315,275.21932 712.14842,268.05422 712.85714,265.21932 C 713.72436,261.75042 713.57143,258.57561 713.57143,256.64789 C 713.57143,255.04234 706.49171,251.33811 705,250.21932 C 702.01315,247.97919 700.83477,246.76838 697.85714,243.79075 C 694.79398,240.7276 696.23642,239.60111 699.28571,238.07647 C 701.86675,236.78595 702.318,231.89055 703.57143,230.21932 C 705.53592,227.6 708.71571,227.39825 711.42857,228.07647 C 715.26876,229.03651 714.40186,231.53175 717.85714,228.07647 C 719.28343,226.65017 713.02369,221.59424 712.14285,220.93361 C 710.4237,219.64424 703.91998,219.67931 702.14285,218.79075 C 698.64039,217.03952 699.39154,213.79075 695,213.79075 C 690.75005,213.79075 690.55054,212.44405 686.42857,214.50504 C 683.33238,216.05313 683.08603,220.47584 682.14285,222.36218 C 680.6685,225.31088 678.00606,226.49897 675.71428,228.79075 C 673.92451,230.58053 675.91118,235.02243 673.57142,237.36218 C 670.73106,240.20254 666.94794,236.68028 665,235.21932 C 662.65291,233.45901 661.75969,230.16729 660.71428,228.07647 C 659.3231,225.2941 657.46568,224.21144 655,222.36218 C 651.75945,219.93177 648.81701,219.80078 644.28571,220.93361 C 641.17095,221.7123 636.80104,220.93361 633.57142,220.93361 C 630.32705,220.93361 629.82572,217.1879 627.85714,215.21932 C 624.9408,212.30299 623.62248,210.60199 620,208.79075 C 617.20484,207.39317 612.71427,208.36218 610.71428,207.36218 C 606.86076,205.43542 614.12301,201.3721 615,200.93361 C 617.81777,199.52472 620.08769,198.74691 622.85714,197.36218 C 624.18384,196.69883 616.19491,189.75201 615.71428,188.79075 C 613.75244,184.86708 611.42857,187.37101 611.42857,183.79075 C 611.42857,182.03908 616.43181,178.7875 617.14285,178.07647 C 619.79282,175.4265 615.6862,174.13385 613.57142,173.07647 C 611.4787,172.0301 609.6213,169.12634 607.85714,167.36218 C 606.349,165.85404 605.14752,164.65256 604.28571,163.79075 C 603.12754,162.63258 594.54176,159.63306 592.85714,158.79075 C 589.20881,156.96659 587.27168,160.64088 583.57142,158.79075 C 580.85589,157.43298 579.19454,153.90094 577.14285,152.36218 C 573.89901,149.9293 571.45901,148.81358 568.57142,146.64789 C 563.46926,142.82127 564.29921,141.62089 566.42857,137.36218 C 567.60206,135.01519 561.70476,130.77171 560.71428,128.79075 C 558.99363,125.34944 562.14285,124.3138 562.14285,120.21932 C 562.14285,115.63586 557.15666,113.79075 554.28571,113.79075 C 550.73285,113.79075 551.17566,108.53785 547.85714,105.21932 C 545.4739,102.83609 543.28533,100.64752 541.42857,98.790753 C 537.73569,95.097873 537.21611,97.39881 532.85714,95.219324 C 529.95708,93.769296 528.08797,91.164437 526.42857,89.505038 C 524.07854,87.155016 522.14285,85.901871 522.14285,81.647895 C 522.14285,80.060992 515.39651,75.774722 514.28571,75.219324 C 512.03452,74.093728 506.15467,75.219324 503.57142,75.219324 C 497.54601,75.219324 496.31804,73.901282 492.85714,77.362181 C 490.07902,80.140304 487.66068,80.47824 484.28571,78.790753 C 480.15373,76.72476 481.4615,75.219324 475.71428,75.219324 C 471.80953,75.219324 468.35159,75.329239 465.71428,76.647895 C 462.24898,78.380544 460.23495,82.136639 459.28571,85.93361 C 458.56058,88.834146 455.87764,90.178486 452.85714,90.93361 C 450.01047,91.645278 447.14851,92.33957 446.42857,95.219324 C 445.19977,100.13451 439.38891,96.751091 437.85714,95.219324 C 434.92336,92.285546 435.67296,90.051084 432.14285,90.93361 C 430.27793,91.39984 428.30388,95.575218 427.85714,97.362181 C 427.06547,100.52885 424.88512,102.06247 421.42857,103.79075 C 417.79191,105.60908 413.36317,103.91726 410,103.07647 C 405.76853,102.0186 404.60489,101.45034 400.71428,99.505038 C 397.85714,98.076467 398.68734,105.8177 396.42857,108.07647 C 393.29007,111.21497 394.45541,113.7059 390,115.93361 C 387.85052,117.00835 383.77136,115.78366 380.71428,118.07647 C 378.32511,119.86835 373.24557,118.53072 371.42857,118.07647 C 368.28765,117.29124 363.98662,114.35549 361.42857,113.07647 C 359.17738,111.95087 353.29753,113.07647 350.71428,113.07647 C 346.89259,113.07647 344.35332,114.70051 340.71428,113.79075 C 337.16019,112.90223 336.48062,109.50504 331.42857,109.50504 C 326.85664,109.50504 325.07076,108.12954 322.14285,105.93361 C 319.33606,103.82851 317.11291,100.89369 315,98.076467 C 313.11711,95.565951 307.92786,96.647895 305,96.647895 C 304.1312,96.647895 299.91793,91.60686 298.57142,90.93361 C 296.11928,89.707536 293.97335,86.592193 292.14285,85.219324 C 289.19713,83.010035 288.18501,78.287231 287.85714,76.647895 C 286.96572,72.190813 279.06094,72.418374 276.42857,73.076467 C 276.20736,73.131768 270.53335,67.181247 270,66.647895 C 267.84553,64.493434 266.14336,62.506058 265,60.219324 C 262.69616,55.611645 259.83646,53.708985 254.28571,50.93361 C 250.74784,49.164674 249.07906,46.441248 246.42857,43.790753 C 244.68307,42.045255 241.44449,40.949534 239.28571,38.790753 C 235.84016,35.345204 236.15759,32.805488 232.85714,29.505038 C 230.21041,26.858311 229.5269,23.322302 228.57142,20.93361 C 226.81373,16.539384 229.55459,14.773916 226.42857,11.647895 C 223.8043,9.0236317 222.66298,6.5508142 218.57142,4.5050386 C 218.27026,4.354454 218.09523,4.0288481 217.85714,3.7907529" style="fill:none;fill-opacity:1;fill-rule:evenodd;stroke:black;stroke-width:3.9000001;stroke-linecap:butt;stroke-linejoin:miter;stroke-miterlimit:4;stroke-dasharray:none;stroke-opacity:1" id="path2089"/>
      <g id="g53637">
        <path d="M 553.57143,499.50504 C 553.10023,501.81993 551.42857,506.29801 551.42857,510.21932 C 551.42857,511.66603 543.97229,515.63296 543.57143,515.93361 C 540.29755,518.38902 548.53105,521.60752 549.28571,522.36218 C 550.1879,523.26436 552.50703,530.23339 552.85714,530.93361 C 553.44393,532.10718 547.15171,534.85775 546.42857,535.21932 C 545.19951,535.83385 546.92815,545.07476 547.14286,545.93361 C 547.9725,549.25218 550.71429,548.4574 550.71429,553.79075 C 550.71429,557.40773 550,559.70753 550,563.79075 C 550,569.08972 551.09943,569.1759 554.28571,572.36218 C 557.19354,575.27001 559.28571,573.87267 559.28571,579.50504 C 559.28571,583.67988 565.71429,582.9419 565.71429,588.07646 C 565.71429,591.53664 569.3064,593.8735 570,596.64789 C 571.35176,602.05493 578.37505,597.55856 579.28571,596.64789 C 582.36853,593.56508 582.31937,591.37901 587.14286,593.79075 C 589.90265,595.17064 590.58253,598.72487 593.57143,600.21932 C 595.82262,601.34492 601.70247,600.21932 604.28571,600.21932 C 608.5269,600.21932 610.73964,598.79075 614.28571,598.79075 C 619.06172,598.79075 618.32546,599.27088 622.14286,597.36218 C 625.19054,595.83834 626.34733,595.21932 630.71429,595.21932 C 635.40022,595.21932 637.0829,595.15937 639.28571,597.36218 C 643.05193,601.12839 646.60407,595.9459 647.14286,593.79075 C 647.75301,591.35014 653.67104,590.4228 655.71429,590.93361 C 660.08078,592.02523 660.48431,590.42494 661.42857,586.64789 C 662.33222,583.03331 662.85995,581.64508 665,579.50504 C 666.77644,577.7286 668.42022,574.09318 669.28571,572.36218 C 671.43573,568.06215 674.51211,568.07646 679.28572,568.07646 C 683.24052,568.07646 687.86492,569.32452 692.85714,568.07646 C 696.5543,567.15218 699.49435,566.64789 703.57143,566.64789 C 708.24541,566.64789 710.72543,568.08203 713.57143,569.50504 C 718.12025,571.77945 719.7441,570.73112 721.42857,567.36218 C 723.76975,562.67983 730.18188,566.38169 732.14286,567.36218 C 734.9195,568.7505 732.10422,561.08816 732.85714,558.07646 C 733.41461,555.8466 731.99142,552.25365 732.85714,548.79075 C 733.42588,546.5158 738.23701,548.03101 739.28572,545.93361 C 739.53842,545.4282 743.82724,547.84723 744.28572,548.07646" style="fill:none;fill-opacity:1;fill-rule:evenodd;stroke:black;stroke-width:3.9000001;stroke-linecap:butt;stroke-linejoin:miter;stroke-miterlimit:4;stroke-dasharray:none;stroke-opacity:1" id="path2085"/>
        <path d="M 744.15874,490.40424 C 744.21442,490.26785 738.588,483.9145 737.73211,481.81807 C 737.26057,480.66307 740.47413,477.71816 737.14787,474.66292 C 734.87707,472.57715 731.69399,472.03876 728.96853,470.36984 C 725.88491,468.48159 723.90617,467.68762 721.37341,465.36124 C 718.60537,462.81872 716.87971,459.85783 714.94679,457.49057 C 712.6085,454.62689 711.02809,451.97586 709.10439,449.61992 C 706.40149,446.30969 708.02563,444.61132 711.44135,444.61132 C 715.51177,444.61132 714.84242,441.54502 715.53102,438.17169 C 716.4428,433.70507 718.99729,434.54614 715.53102,430.30103 C 713.90524,428.30993 711.72866,424.80757 710.27287,422.43037 C 708.27358,419.16567 707.03738,418.24592 707.93592,413.8442 C 708.93692,408.94051 710.85711,411.41452 710.85711,404.54251 C 710.85711,401.64583 708.30548,399.87002 709.10439,395.95634 C 709.63075,393.37784 714.63832,391.58883 716.11526,390.23223 C 718.43317,388.10318 722.64508,390.26381 724.87885,390.94774 C 728.2217,391.97124 728.78173,385.68114 729.55276,383.79259 C 730.45251,381.58876 734.80304,378.43346 735.97939,377.35297 C 737.97539,375.51961 739.76842,372.5968 741.23755,370.19783 C 742.19503,368.63432 741.50075,361.75329 741.82178,360.18063 C 742.32806,357.70048 736.08565,353.87113 734.81091,352.30996 C 732.54015,349.52897 732.15261,348.33883 730.137,345.87034 C 727.83628,343.05265 726.84791,341.21501 724.87885,337.99968 C 724.20558,336.90027 718.48781,336.06471 716.69951,334.42211 C 714.07409,332.01061 713.30777,330.16384 710.85711,329.41351 C 707.51683,328.3908 707.35167,325.62544 707.35167,321.54285 C 707.35167,317.11587 711.1171,318.12448 706.1832,315.10322 C 703.72977,313.60087 701.70715,310.57927 700.34081,307.23256 C 699.37559,304.86838 700.89121,299.91164 700.34081,297.21536 C 699.59709,293.57209 700.40177,290.35888 699.75657,287.19816 C 698.68785,281.96274 701.12146,279.80247 702.67776,277.89648 C 704.20513,276.02592 706.67437,275.03442 709.68863,275.03442" style="fill:none;fill-opacity:1;fill-rule:evenodd;stroke:black;stroke-width:3.53018236;stroke-linecap:butt;stroke-linejoin:miter;stroke-miterlimit:4;stroke-dasharray:none;stroke-opacity:1" id="path2087"/>
        <path d="M 310,392.36218 C 312.22336,396.80889 317.26866,382.05373 314.28572,378.07647 C 311.51067,374.3764 302.33531,370.44601 298.57143,369.50504 C 294.50826,368.48925 289.29329,360.2269 287.14286,358.07647 C 279.84375,350.77736 285.02682,347.96921 287.14286,339.50504 C 288.64427,333.49939 275.53693,335.13065 270,332.36218 C 263.7282,329.22628 261.31861,323.68079 257.14286,319.50504 C 253.04566,315.40784 248.53747,310.89965 244.28572,306.6479 C 238.98949,301.35167 234.98902,295.19736 232.85715,290.93361 C 230.65148,286.52227 223.49869,283.00372 220,279.50504 C 214.34963,273.85466 210.50756,272.86974 205.71429,268.07647 C 202.84535,265.20753 202.55872,253.19391 201.42857,250.93361 C 198.78163,245.63972 198.27185,239.20546 194.28572,235.21932 C 187.76168,228.69528 185.71429,227.61234 185.71429,220.93361 C 185.71429,212.79468 178.5146,210.9194 172.85715,209.50504 C 171.73772,209.22518 171.81305,193.13114 171.42857,192.36218 C 168.86614,187.2373 172.39105,184.22655 174.28572,176.6479 C 175.72952,170.87267 166.3787,167.91036 177.14286,165.21932 C 184.78758,163.30814 189.76553,164.3878 194.28572,166.6479 C 196.69787,167.85397 200.67862,178.75509 202.85715,180.93361 C 206.4837,184.56017 212.55559,184.35426 217.14286,186.6479 C 222.10987,189.1314 221.78752,176.28895 225.71429,172.36218 C 231.88367,166.1928 228.55545,163.07247 237.14286,165.21932 C 244.46543,167.04997 250.13828,166.57876 255.71429,163.79075 C 265.18074,159.05753 258.65497,159.14024 264.28572,166.6479 C 268.52501,172.30029 271.29173,172.36218 280,172.36218 C 284.0793,172.36218 289.2141,167.52285 297.14286,169.50504 C 302.03491,170.72805 299.68133,175.29899 311.42857,172.36218 C 314.11532,171.6905 322.25236,178.07647 328.57143,178.07647 C 337.19903,178.07647 331.07329,188.43175 341.42857,178.07647 C 347.3963,172.10874 346.388,173.0359 352.85715,179.50504 C 359.99533,186.64322 357.40032,176.6479 365.71429,176.6479 C 372.76969,176.6479 378.55836,179.13809 382.85715,182.36218 C 387.13358,185.56951 396.36564,181.97357 400,183.79075 C 400.40929,183.99539 403.82831,198.2665 407.14286,203.79075 C 410.82599,209.9293 422.16848,199.16071 428.57143,202.36218 C 431.24105,203.69699 441.2846,198.04047 447.14286,199.50504 C 458.56378,202.36027 445.68287,212.37789 442.85715,213.79075 C 441.80646,214.3161 436.10068,229.38805 435.71429,230.93361 C 434.16682,237.1235 429.25807,237.96588 431.42857,246.6479 C 433.46257,254.78389 428.21041,257.27192 437.14286,259.50504 C 444.14319,261.25512 449.56526,264.90892 451.42857,272.36218 C 451.49253,272.618 467.1374,280.93088 467.14286,280.93361 C 475.37318,285.04877 466.76752,288.07647 460,288.07647 C 451.78123,288.07647 447.27363,286.6479 440,286.6479 C 434.81114,286.6479 441.97733,296.31684 442.85715,298.07647 C 446.00122,304.36461 451.4298,305.21963 457.14286,306.6479 C 460.20005,307.41219 462.42377,318.81475 461.42857,323.79075 C 459.54835,333.1919 455.60925,333.73824 450,330.93361 C 440.1598,326.01351 441.8455,329.08811 438.57143,332.36218 C 432.08499,338.84863 428.09317,336.88547 421.42857,335.21932 C 410.03107,332.36995 412.7169,337.51549 414.28572,343.79075 C 415.63259,349.17823 424.64466,348.43541 428.57143,352.36218 C 437.01023,360.80098 417.44342,360.93361 414.28572,360.93361 C 407.843,360.93361 407.71538,347.50394 397.14286,358.07647 C 392.18795,363.03137 386.50574,365.52799 388.57143,373.79075 C 390.1689,380.18063 392.81586,387.3725 384.28572,389.50504 C 375.25216,391.76343 380,395.77825 380,405.21932 C 380,409.85464 379.76142,410.1393 385.71429,418.07647 C 391.46884,425.7492 383.99737,433.5024 377.14286,426.6479 C 371.87984,421.38487 369.05481,420.45562 361.42857,422.36218 C 360.01853,422.71469 347.8237,410.18588 347.14286,409.50504 C 342.17925,404.54143 337.52619,405.73043 332.85715,399.50504 C 328.93323,394.27315 325.29984,392.46579 320,393.79075 C 319.20401,393.98975 310.2745,392.72818 310,392.36218 z " style="fill:none;fill-opacity:1;fill-rule:evenodd;stroke:black;stroke-width:2;stroke-linecap:butt;stroke-linejoin:miter;stroke-miterlimit:4;stroke-dasharray:none;stroke-opacity:1" id="path7420"/>
        <path d="M 7.1428571,129.50504 C 11.435809,134.41475 19.443628,136.6479 28.571429,136.6479 C 36.661139,136.6479 30.830611,145.5183 40,140.93361 C 50.44365,135.71179 42.88424,136.64112 54.285714,133.79075 C 62.075319,131.84335 66.889744,136.58462 72.857143,138.07647 C 73.891435,138.33504 84.067879,124.22642 84.285714,123.79075 C 88.954335,114.45351 93.096952,123.32142 94.285714,128.07647 C 96.0014,134.93921 101.60906,135.26445 107.14286,136.6479 C 115.32422,138.69324 113.29243,128.51175 121.42857,136.6479 C 126.43284,141.65216 128.86009,142.1342 137.14286,143.79075 C 147.1908,145.80034 148.44578,137.95082 145.71429,135.21932 C 140.23636,129.7414 135.50699,126.6479 147.14286,126.6479 C 154.35513,126.6479 143.07966,114.23578 142.85714,113.79075 C 140.18878,108.45402 154.35237,109.43838 158.57143,105.21932 C 162.47098,101.31977 172.64666,105.32456 175.71429,103.79075 C 181.25122,101.02229 175.71429,91.409801 175.71429,85.219325 C 175.71429,77.120056 160.63112,81.731058 170,72.362182 C 174.87002,67.492163 179.28091,68.613384 187.14286,66.647896 C 191.65992,65.518631 190.39138,59.505039 201.42857,59.505039 C 210.41028,59.505039 201.8,48.169324 212.85714,50.933611 C 222.93509,53.453098 219.63595,51.634074 215.71429,43.790754 C 212.50515,37.372491 225.29309,36.647896 230,36.647896 C 232.85714,36.647896 235.71429,36.647896 238.57143,36.647896" style="fill:none;fill-opacity:1;fill-rule:evenodd;stroke:black;stroke-width:2;stroke-linecap:butt;stroke-linejoin:miter;stroke-miterlimit:4;stroke-dasharray:none;stroke-opacity:1" id="path8309"/>
        <path d="M 428.57143,202.36218 C 430.99953,202.36218 424.71475,195.21933 427.14286,195.21933 C 440.69175,195.21933 426.73939,206.63695 432.85714,192.36218 C 436.08117,184.83944 429.08022,180.42482 435.71429,173.79075 C 439.56477,169.94027 450.42732,172.82616 454.28571,173.79075 C 459.47652,175.08845 456.74313,163.99652 448.57143,162.36218 C 440.36786,160.72147 434.66984,161.12567 428.57143,158.07647 C 422.81078,155.19614 416.47588,149.50504 424.28571,149.50504 C 428.5978,149.50504 424.86862,140.87625 425.71429,136.6479 C 426.31349,133.65188 417.44301,137.84852 415.71429,130.93361 C 413.86723,123.54539 430.27998,129.78502 420,119.50504 C 415.63532,115.14036 415.1075,110.32682 411.42857,106.6479 C 410.67565,105.89497 409.52381,105.69552 408.57143,105.21932" style="fill:none;fill-opacity:1;fill-rule:evenodd;stroke:black;stroke-width:2;stroke-linecap:butt;stroke-linejoin:miter;stroke-miterlimit:4;stroke-dasharray:none;stroke-opacity:1" id="path8311"/>
        <path d="M 447.18835,200.93635 C 441.60874,195.55217 462.96986,200.93635 470.86061,200.93635 C 477.15078,200.93635 485.02614,201.54394 476.77868,209.50253 C 469.23714,216.77992 486.93111,219.09022 488.61481,219.4964 C 494.12019,220.82454 494.21701,228.06258 504.88949,228.06258 C 513.88411,228.06258 510.43627,215.20789 509.32804,210.93022 C 509.3118,210.86753 520.6978,198.53099 521.16417,198.08096 C 525.06304,194.31865 527.22446,188.96584 528.56176,183.80399 C 529.75787,179.18709 535.23332,190.969 537.43886,195.22556 C 542.00532,204.03861 549.46149,197.36106 546.31596,209.50253 C 545.36661,213.16692 554.71044,220.93173 556.67257,222.35179 C 561.63294,225.94176 565.52488,226.63488 574.42676,226.63488 C 578.50369,226.63488 584.16359,216.79053 590.70145,215.21331 C 597.5278,213.5665 602.20794,208.39293 606.97613,203.79174 C 608.0789,202.7276 609.93516,202.83994 611.41468,202.36404" style="fill:none;fill-opacity:1;fill-rule:evenodd;stroke:black;stroke-width:1.62778044;stroke-linecap:butt;stroke-linejoin:miter;stroke-miterlimit:4;stroke-dasharray:none;stroke-opacity:1" id="path8313"/>
        <path d="M 438.57143,335.21933 C 443.24926,330.5415 443.8936,347.68435 448.57143,352.36218 C 450.07714,353.86789 464.54573,356.06362 465.71429,356.6479 C 471.12658,359.35404 462.18444,368.26543 472.85714,370.93361 C 480.48651,372.84095 483.21313,373.96875 488.57143,376.6479 C 496.7277,380.72603 487.71001,382.93468 501.42857,379.50504 C 507.63596,377.95319 513.42544,385.78762 515.71429,388.07647 C 520.26454,392.62672 529.3031,390.93361 535.71429,390.93361 C 541.03826,390.93361 536.62176,402.88328 532.85714,406.6479 C 528.21897,411.28607 525.51952,415.25828 518.57143,416.6479 C 509.44841,418.4725 514.43226,424.37695 515.71429,429.50504 C 515.97254,430.53804 513.80952,428.55266 512.85714,428.07647" style="fill:none;fill-opacity:1;fill-rule:evenodd;stroke:black;stroke-width:2;stroke-linecap:butt;stroke-linejoin:miter;stroke-miterlimit:4;stroke-dasharray:none;stroke-opacity:1" id="path8315"/>
        <path d="M 535.71429,403.79075 C 538.92345,416.62741 549.66682,400.83776 550,399.50504 C 550.9213,395.81982 535.77968,392.36218 552.85714,392.36218 C 559.66371,392.36218 558.46165,381.92308 557.14286,376.6479 C 555.55746,370.30632 554.2107,366.72291 558.57143,362.36218 C 566.12397,354.80964 568.18594,359.11955 571.42857,362.36218 C 573.1455,364.07911 568.28307,367.78811 570,369.50504 C 573.98171,373.48675 585.41004,369.20079 591.42857,375.21933 C 596.57693,380.36768 598.1127,380.52725 600,388.07647 C 600.03638,388.22197 605.71429,382.76362 605.71429,393.79075 C 605.71429,395.94171 620.00664,399.50836 622.85714,400.93361 C 626.78391,402.89699 621.96338,409.86399 620,413.79075 C 617.01098,419.76879 633.51591,413.5983 640,415.21933 C 649.09292,417.49255 655.69208,413.82036 647.14286,425.21933 C 642.96059,430.79568 642.30812,437.19692 638.57143,440.93361 C 633.32209,446.18295 629.85054,448.9072 631.42857,455.21933 C 632.44305,459.27723 622.00362,458.50323 617.14286,460.93361 C 609.88797,464.56106 612.43178,473.51788 612.85714,475.21933 C 613.02513,475.89126 599.2434,467.15188 598.57143,466.6479 C 592.2431,461.90165 584.61546,470.32916 580,473.79075 C 572.27484,479.58462 571.42857,474.55703 571.42857,488.07647 C 571.42857,498.28998 572.30063,500.93361 561.42857,500.93361 C 552.0584,500.93361 557.68509,499.23392 562.85714,496.6479" style="fill:none;fill-opacity:1;fill-rule:evenodd;stroke:black;stroke-width:1.70000005;stroke-linecap:butt;stroke-linejoin:miter;stroke-miterlimit:4;stroke-dasharray:none;stroke-opacity:1" id="path8317"/>
        <path d="M 627.2608,456.617 C 619.97683,456.617 644.25726,457.78061 648.62764,452.34994 C 651.48959,448.79368 665.56344,449.76221 666.94207,449.50524 C 672.69215,448.43348 680.03599,446.66054 688.30891,446.66054 C 698.83048,446.66054 701.72607,446.95752 706.62335,442.39348 C 706.79143,442.23683 712.694,443.525 714.25436,443.81583" style="fill:none;fill-rule:evenodd;stroke:black;stroke-width:2.0627079;stroke-linecap:butt;stroke-linejoin:miter;stroke-miterlimit:4;stroke-dasharray:none;stroke-opacity:1" id="path8319"/>
        <path d="M 514.28571,428.07647 C 514.2534,428.20606 511.39989,433.84812 510,436.6479" style="fill:#ffb99e;fill-opacity:1;fill-rule:nonzero;stroke:black;stroke-width:2;stroke-linecap:butt;stroke-linejoin:miter;stroke-miterlimit:4;stroke-dasharray:none;stroke-opacity:1" id="path8321"/>
        <path d="M 71.428571,176.6479 C 72.36649,166.84129 67.632273,163.30134 60,170.93361 C 53.123318,177.81029 73.103592,172.18117 67.142857,188.07647 C 65.075779,193.58868 57.142857,182.44601 57.142857,196.6479 C 57.142857,199.6456 61.512801,212.53064 62.857143,215.21933 C 65.340649,220.18634 71.755377,222.44388 77.142857,223.79075 C 89.741685,226.94046 80.470996,218.54746 77.142857,215.21933 C 73.33397,211.41044 74.285714,201.84766 74.285714,195.21933 C 74.285714,186.23979 73.312796,181.35846 68.571429,169.50504" style="fill:none;fill-rule:evenodd;stroke:black;stroke-width:2;stroke-linecap:butt;stroke-linejoin:miter;stroke-miterlimit:4;stroke-dasharray:none;stroke-opacity:1" id="path15403"/>
        <path d="M 101.42857,206.6479 C 101.42857,194.90388 89.126287,198.95018 85.714286,202.36218 C 81.875115,206.20135 93.286181,210.36312 95.714286,215.21933 C 96.545255,216.88126 116.00488,224.86828 101.42857,206.6479 z " style="fill:none;fill-rule:evenodd;stroke:black;stroke-width:2;stroke-linecap:butt;stroke-linejoin:miter;stroke-miterlimit:4;stroke-dasharray:none;stroke-opacity:1" id="path15405"/>
        <path d="M 92.857143,175.21933 C 94.954544,179.41413 86.005382,166.91208 87.142857,162.36218 C 89.974885,151.03407 79.508398,167.6311 78.571429,169.50504 C 74.950062,176.74777 74.108682,176.55938 82.857143,180.93361 C 104.58728,191.79868 79.908451,166.4648 91.428571,189.50504 C 95.410279,197.46845 101.88035,187.69792 102.85714,183.79075 C 103.92194,179.53158 96.285359,177.9619 92.857143,175.21933 z " style="fill:none;fill-rule:evenodd;stroke:black;stroke-width:2;stroke-linecap:butt;stroke-linejoin:miter;stroke-miterlimit:4;stroke-dasharray:none;stroke-opacity:1" id="path15407"/>
        <path d="M 130,248.07647 C 131.76292,241.02476 117.92992,239.89857 111.42857,236.6479 C 107.62684,234.74703 102.23012,224.59231 98.571433,220.93361 C 93.158383,215.52056 93.748343,232.71602 94.285713,233.79075 C 97.723293,240.66591 103.55658,239.47534 107.14285,246.6479 C 110.30143,252.96505 112.69836,253.63197 117.14285,258.07647 C 125.8773,266.81091 130.00572,248.11079 128.57143,239.50504" style="fill:none;fill-rule:evenodd;stroke:black;stroke-width:2;stroke-linecap:butt;stroke-linejoin:miter;stroke-miterlimit:4;stroke-dasharray:none;stroke-opacity:1" id="path15409"/>
        <path d="M 381.42857,428.07647 C 376.64284,429.75786 377.52008,436.72821 378.57143,440.93361" style="fill:none;fill-rule:evenodd;stroke:black;stroke-width:2;stroke-linecap:butt;stroke-linejoin:miter;stroke-miterlimit:4;stroke-dasharray:none;stroke-opacity:1" id="path23426"/>
        <path d="M 307.88608,402.70783 C 302.70979,400.01187 298.17089,393.86899 288.73527,393.86899 C 279.57254,393.86899 274.9103,392.11249 269.58446,389.44958 C 261.33265,385.32367 261.53813,383.55702 250.43365,383.55702 C 245.21376,383.55702 256.99887,393.86899 262.21876,393.86899 C 265.22263,393.86899 270.46898,399.76155 278.42329,399.76155 C 281.96072,399.76155 281.91674,408.60038 291.68155,408.60038 C 305.1741,408.60038 307.83756,402.41673 309.35922,411.54666 C 309.50552,412.4245 316.98373,412.58194 315.25177,405.65411 C 314.61042,403.08869 310.34131,403.68992 307.88608,402.70783 z " style="fill:none;fill-rule:evenodd;stroke:black;stroke-width:1px;stroke-linecap:butt;stroke-linejoin:miter;stroke-opacity:1" id="path53635"/>
      </g>
    </g>
    <path d="M 751.83639,477.46275 C 754.56829,480.66786 761.49846,490.81206 766.58598,494.23025 C 773.09771,498.60535 764.2668,505.76627 766.82276,511.21277 C 770.13315,518.26693 770.94662,524.28491 770.91856,532.08218 C 770.90748,535.1623 765.28954,534.73502 762.26707,535.3282" style="fill:none;fill-rule:evenodd;stroke:black;stroke-width:3.09361863;stroke-linecap:butt;stroke-linejoin:miter;stroke-miterlimit:4;stroke-dasharray:none;stroke-opacity:1" id="path55735"/>
    <path d="M 753.64583,536.52391 C 754.30031,536.88847 759.41425,537.84561 760.9375,538.60724 C 762.1503,539.21364 762.22621,535.8111 763.54167,535.48224" style="fill:none;fill-rule:evenodd;stroke:black;stroke-width:3;stroke-linecap:butt;stroke-linejoin:miter;stroke-miterlimit:4;stroke-dasharray:none;stroke-opacity:1" id="path56622"/>
  </g>
</svg>